<svg width="32" height="33" viewBox="0 0 32 33" fill="none" xmlns="http://www.w3.org/2000/svg">
<path d="M30.72 0H1.28C0.572 0 0 0.5801 0 1.29813V31.155C0 31.873 0.572 32.4531 1.28 32.4531H30.72C31.428 32.4531 32 31.873 32 31.155V1.29813C32 0.5801 31.428 0 30.72 0ZM27.024 9.47226H24.468C22.464 9.47226 22.076 10.4377 22.076 11.8576V14.9852H26.86L26.236 19.8816H22.076V32.4531H17.088V19.8857H12.916V14.9852H17.088V11.3748C17.088 7.18431 19.612 4.90042 23.3 4.90042C25.068 4.90042 26.584 5.03429 27.028 5.09514V9.47226H27.024Z" fill="white"/>
</svg>
