<svg width="32" height="33" viewBox="0 0 32 33" fill="none" xmlns="http://www.w3.org/2000/svg">
<path d="M15.9957 10.8154C13.0578 10.8154 10.6602 13.247 10.6602 16.2266C10.6602 19.2062 13.0578 21.6377 15.9957 21.6377C18.9336 21.6377 21.3312 19.2062 21.3312 16.2266C21.3312 13.247 18.9336 10.8154 15.9957 10.8154ZM31.9982 16.2266C31.9982 13.9858 32.0182 11.7653 31.8941 9.52858C31.7701 6.93057 31.1857 4.62484 29.3125 2.72505C27.4352 0.821203 25.1657 0.232592 22.604 0.106751C20.3946 -0.0190895 18.2052 0.00120744 15.9997 0.00120744C13.7902 0.00120744 11.6008 -0.0190895 9.39536 0.106751C6.83368 0.232592 4.56019 0.825262 2.68696 2.72505C0.809722 4.6289 0.22934 6.93057 0.105259 9.52858C-0.0188226 11.7694 0.00119056 13.9898 0.00119056 16.2266C0.00119056 18.4633 -0.0188226 20.6878 0.105259 22.9245C0.22934 25.5226 0.813725 27.8283 2.68696 29.7281C4.56419 31.6319 6.83368 32.2205 9.39536 32.3464C11.6048 32.4722 13.7943 32.4519 15.9997 32.4519C18.2092 32.4519 20.3986 32.4722 22.604 32.3464C25.1657 32.2205 27.4392 31.6279 29.3125 29.7281C31.1897 27.8242 31.7701 25.5226 31.8941 22.9245C32.0222 20.6878 31.9982 18.4673 31.9982 16.2266ZM15.9957 24.5524C11.4527 24.5524 7.78631 20.834 7.78631 16.2266C7.78631 11.6192 11.4527 7.90077 15.9957 7.90077C20.5387 7.90077 24.2051 11.6192 24.2051 16.2266C24.2051 20.834 20.5387 24.5524 15.9957 24.5524ZM24.5413 9.50422C23.4806 9.50422 22.6241 8.63552 22.6241 7.55978C22.6241 6.48404 23.4806 5.61533 24.5413 5.61533C25.602 5.61533 26.4586 6.48404 26.4586 7.55978C26.4589 7.81522 26.4095 8.06821 26.3133 8.30427C26.217 8.54032 26.0758 8.7548 25.8977 8.93542C25.7196 9.11605 25.5082 9.25926 25.2754 9.35686C25.0426 9.45447 24.7932 9.50454 24.5413 9.50422Z" fill="white"/>
</svg>
