<svg width="33" height="33" viewBox="0 0 33 33" fill="none" xmlns="http://www.w3.org/2000/svg">
<path d="M31.68 0.380371H1.32C0.589875 0.380371 0 0.960471 0 1.6785V31.5354C0 32.2534 0.589875 32.8335 1.32 32.8335H31.68C32.4101 32.8335 33 32.2534 33 31.5354V1.6785C33 0.960471 32.4101 0.380371 31.68 0.380371ZM25.746 11.8589C25.5235 12.0345 25.3925 12.3048 25.3934 12.5884C25.3935 12.6312 25.3935 12.674 25.3935 12.7166C25.3935 18.6718 20.7818 25.5315 12.3544 25.5315C10.1546 25.5315 8.09083 24.9996 6.27808 24.0613C6.03754 23.9368 6.15178 23.5681 6.42263 23.5681C7.27825 23.5681 8.1063 23.4545 8.89239 23.2412C10.0507 22.9269 9.71076 21.1108 8.87415 20.2502C8.52945 19.8956 8.24376 19.4859 8.0323 19.0358C7.9238 18.8048 8.12474 18.5638 8.37942 18.5795C8.74639 18.6021 8.78982 18.0862 8.47221 17.901C8.01303 17.6332 7.60162 17.2866 7.25924 16.8738C6.59075 16.0677 6.22663 15.0589 6.22875 14.0188C6.22875 13.9933 6.25613 13.9772 6.27857 13.9892C6.46325 14.0887 6.6575 14.1762 6.85928 14.2504C7.24776 14.3933 7.47209 13.871 7.21572 13.546C7.05878 13.3471 6.91853 13.1349 6.79681 12.9115C6.44063 12.2576 6.25401 11.5274 6.2535 10.7857C6.2535 9.6212 7.66242 9.45592 8.55648 10.202C9.33013 10.8475 10.18 11.4036 11.0899 11.8573C13.5537 13.0857 15.9241 9.99239 18.2134 8.46322C18.9559 7.96723 19.85 7.68232 20.7983 7.68232C21.9251 7.68232 22.9557 8.07846 23.7542 8.7395C24.0101 8.95141 24.3415 9.06976 24.664 8.98954C25.1225 8.87547 25.5698 8.72481 26 8.54313C26.3795 8.38292 26.7684 8.73079 26.5422 9.07497C26.4475 9.21893 26.3447 9.35731 26.2341 9.48944C26.0009 9.76833 26.24 10.2906 26.5889 10.1882C26.9137 10.0929 27.1812 10.4626 26.9564 10.7157C26.5875 11.1309 26.1823 11.5145 25.746 11.8589Z" fill="white"/>
</svg>
